<?xml version="1.0" encoding="UTF-8"?>
<svg xmlns="http://www.w3.org/2000/svg" xmlns:xlink="http://www.w3.org/1999/xlink" width="50px" height="50px" viewBox="0 0 50 50" version="1.1">
<g id="surface1">
<path style="fill:none;stroke-width:0.00024;stroke-linecap:butt;stroke-linejoin:miter;stroke:rgb(17.647059%,79.215688%,89.019608%);stroke-opacity:1;stroke-miterlimit:4;" d="M 0.000187683 0.000187683 L 23.999813 0.000187683 L 23.999813 23.999813 L 0.000187683 23.999813 Z M 0.000187683 0.000187683 " transform="matrix(1.602564,0,0,1.602564,5.76923,5.76923)"/>
<path style="fill-rule:nonzero;fill:rgb(17.647059%,79.215688%,89.019608%);fill-opacity:1;stroke-width:0.00024;stroke-linecap:butt;stroke-linejoin:miter;stroke:rgb(17.647059%,79.215688%,89.019608%);stroke-opacity:1;stroke-miterlimit:4;" d="M 3.00075 18.001126 L 20.999251 18.001126 C 21.189376 18.001126 21.362438 18.105938 21.447751 18.276563 C 21.533063 18.444751 21.513563 18.649501 21.399001 18.800626 L 19.300313 21.598876 C 19.110188 21.852376 18.815251 22.001063 18.500813 22.001063 L 5.499188 22.001063 C 5.18475 22.001063 4.889813 21.852376 4.699688 21.598876 L 2.601 18.800626 C 2.486438 18.649501 2.466938 18.444751 2.55225 18.276563 C 2.637563 18.105938 2.810625 18.001126 3.00075 18.001126 Z M 15.000563 2.4255 L 15.000563 15.000563 C 15.000563 15.551438 14.552063 15.999938 14.001188 15.999938 L 4.039125 15.999938 C 3.849 15.999938 3.6735 15.890251 3.590625 15.717188 C 3.50775 15.544126 3.529688 15.336938 3.649125 15.188251 L 14.110876 2.1135 C 14.242501 1.94775 14.464313 1.884375 14.666626 1.955063 C 14.866501 2.023313 15.000563 2.213438 15.000563 2.4255 Z M 15.000563 2.4255 " transform="matrix(1.602564,0,0,1.602564,5.76923,5.76923)"/>
</g>
</svg>
