<?xml version="1.0" encoding="UTF-8"?>
<svg xmlns="http://www.w3.org/2000/svg" xmlns:xlink="http://www.w3.org/1999/xlink" width="50px" height="50px" viewBox="0 0 50 50" version="1.1">
<g id="surface1">
<path style=" stroke:none;fill-rule:nonzero;fill:rgb(100%,92.941177%,70.980394%);fill-opacity:1;" d="M 50 25 C 50 11.191406 38.808594 0 25 0 C 11.191406 0 0 11.191406 0 25 C 0 38.808594 11.191406 50 25 50 C 38.808594 50 50 38.808594 50 25 Z M 50 25 "/>
<path style=" stroke:none;fill-rule:nonzero;fill:rgb(99.607843%,88.235295%,52.941179%);fill-opacity:1;" d="M 49.375 30.574219 L 35.058594 16.261719 L 22.730469 28.570312 L 14.132812 37.003906 L 27.046875 49.917969 C 38.019531 49.027344 46.988281 41.054688 49.375 30.574219 Z M 49.375 30.574219 "/>
<path style=" stroke:none;fill-rule:nonzero;fill:rgb(54.509807%,75.686276%,50.196081%);fill-opacity:1;" d="M 14.90625 37.324219 C 14.628906 37.324219 14.347656 37.21875 14.132812 37.003906 C 13.707031 36.578125 13.707031 35.882812 14.132812 35.457031 L 24.339844 25.25 C 24.765625 24.824219 25.460938 24.824219 25.886719 25.25 C 26.316406 25.679688 26.316406 26.371094 25.886719 26.796875 L 15.679688 37.003906 C 15.46875 37.21875 15.1875 37.324219 14.90625 37.324219 Z M 14.90625 37.324219 "/>
<path style=" stroke:none;fill-rule:nonzero;fill:rgb(42.352942%,68.627453%,37.254903%);fill-opacity:1;" d="M 25.886719 25.25 C 26.316406 25.679688 26.316406 26.371094 25.886719 26.796875 L 15.679688 37.003906 C 15.46875 37.21875 15.1875 37.324219 14.90625 37.324219 C 14.628906 37.324219 14.347656 37.21875 14.132812 37.003906 Z M 25.886719 25.25 "/>
<path style=" stroke:none;fill-rule:nonzero;fill:rgb(23.137255%,60.784316%,15.294118%);fill-opacity:1;" d="M 18.355469 20.960938 C 23.007812 16.320312 35.058594 16.261719 35.058594 16.261719 C 35.058594 16.261719 34.984375 28.316406 30.335938 32.957031 C 25.683594 37.601562 21.53125 36.386719 18.222656 33.074219 C 14.914062 29.761719 13.707031 25.605469 18.355469 20.960938 Z M 18.355469 20.960938 "/>
<path style=" stroke:none;fill-rule:nonzero;fill:rgb(18.039216%,50.980395%,10.196079%);fill-opacity:1;" d="M 35.058594 16.261719 C 35.058594 16.261719 34.984375 28.316406 30.335938 32.957031 C 25.683594 37.601562 21.53125 36.386719 18.222656 33.074219 Z M 35.058594 16.261719 "/>
</g>
</svg>
